{
  "accessors": [
    {
      "bufferView": 2,
      "componentType": 5126,
      "count": 738,
      "max": [
        4.710355758666992,
        4.088482856750488,
        1.3494079113006592
      ],
      "min": [
        -4.710443496704102,
        -4.088475704193115,
        -1.8252440690994263
      ],
      "type": "VEC3"
    },
    {
      "bufferView": 2,
      "byteOffset": 8856,
      "componentType": 5126,
      "count": 738,
      "max": [
        1.0,
        1.0,
        1.0
      ],
      "min": [
        -1.0,
        -1.0,
        -1.0
      ],
      "type": "VEC3"
    },
    {
      "bufferView": 3,
      "componentType": 5126,
      "count": 738,
      "max": [
        1.0,
        1.0,
        0.7076525092124939,
        1.0
      ],
      "min": [
        -1.0,
        -0.9999873042106628,
        -0.7054516077041626,
        1.0
      ],
      "type": "VEC4"
    },
    {
      "bufferView": 1,
      "componentType": 5126,
      "count": 738,
      "max": [
        0.9903432130813599,
        0.9844979047775269
      ],
      "min": [
        0.004177838563919067,
        0.08746101707220078
      ],
      "type": "VEC2"
    },
    {
      "bufferView": 0,
      "componentType": 5125,
      "count": 2928,
      "type": "SCALAR"
    },
    {
      "bufferView": 2,
      "byteOffset": 17712,
      "componentType": 5126,
      "count": 493,
      "max": [
        1.0000003576278687,
        1.000000238418579,
        0.9807853102684021
      ],
      "min": [
        -0.9999991655349731,
        -0.9999998211860657,
        -0.9807853102684021
      ],
      "type": "VEC3"
    },
    {
      "bufferView": 2,
      "byteOffset": 23628,
      "componentType": 5126,
      "count": 493,
      "max": [
        1.0,
        1.0,
        1.0
      ],
      "min": [
        -1.0,
        -1.0,
        -1.0
      ],
      "type": "VEC3"
    },
    {
      "bufferView": 1,
      "byteOffset": 5904,
      "componentType": 5126,
      "count": 493,
      "max": [
        0.9989844560623169,
        0.9989844560623169
      ],
      "min": [
        0.0010155737400054932,
        0.0010155737400054932
      ],
      "type": "VEC2"
    },
    {
      "bufferView": 1,
      "byteOffset": 9848,
      "componentType": 5126,
      "count": 493,
      "max": [
        0.9989844560623169,
        0.9989844560623169
      ],
      "min": [
        0.0010155737400054932,
        0.0010155737400054932
      ],
      "type": "VEC2"
    },
    {
      "bufferView": 1,
      "byteOffset": 13792,
      "componentType": 5126,
      "count": 493,
      "max": [
        0.9989844560623169,
        0.9989844560623169
      ],
      "min": [
        0.0010155737400054932,
        0.0010155737400054932
      ],
      "type": "VEC2"
    },
    {
      "bufferView": 0,
      "byteOffset": 11712,
      "componentType": 5125,
      "count": 2496,
      "type": "SCALAR"
    },
    {
      "bufferView": 4,
      "componentType": 5126,
      "count": 1702,
      "max": [
        40.0
      ],
      "min": [
        0.0
      ],
      "type": "SCALAR"
    },
    {
      "bufferView": 5,
      "componentType": 5126,
      "count": 1702,
      "max": [
        0.657688319683075,
        0.7071076035499573,
        0.7071027755737305,
        0.7071030735969543
      ],
      "min": [
        -0.7071117758750916,
        -0.25886043906211853,
        -0.4997851550579071,
        -0.49955087900161743
      ],
      "type": "VEC4"
    }
  ],
  "animations": [
    {
      "channels": [
        {
          "sampler": 0,
          "target": {
            "node": 6,
            "path": "rotation"
          }
        }
      ],
      "name": "Hologram|HologramAction.002",
      "samplers": [
        {
          "input": 11,
          "interpolation": "LINEAR",
          "output": 12
        }
      ]
    }
  ],
  "asset": {
    "extras": {
      "author": "Brandon Baldwin (https://sketchfab.com/Fecalmancer)",
      "license": "CC-BY-NC-4.0 (http://creativecommons.org/licenses/by-nc/4.0/)",
      "source": "https://sketchfab.com/3d-models/holo-table-2e97eadc6aed4d3f860e0cfccce52ffc",
      "title": "Holo-Table"
    },
    "generator": "Sketchfab-12.66.0",
    "version": "2.0"
  },
  "bufferViews": [
    {
      "buffer": 0,
      "byteLength": 21696,
      "name": "floatBufferViews",
      "target": 34963
    },
    {
      "buffer": 0,
      "byteLength": 17736,
      "byteOffset": 21696,
      "byteStride": 8,
      "name": "floatBufferViews",
      "target": 34962
    },
    {
      "buffer": 0,
      "byteLength": 29544,
      "byteOffset": 39432,
      "byteStride": 12,
      "name": "floatBufferViews",
      "target": 34962
    },
    {
      "buffer": 0,
      "byteLength": 11808,
      "byteOffset": 68976,
      "byteStride": 16,
      "name": "floatBufferViews",
      "target": 34962
    },
    {
      "buffer": 0,
      "byteLength": 6808,
      "byteOffset": 80784,
      "name": "floatBufferViews"
    },
    {
      "buffer": 0,
      "byteLength": 27232,
      "byteOffset": 87592,
      "byteStride": 16,
      "name": "floatBufferViews"
    }
  ],
  "buffers": [
    {
      "byteLength": 114824,
      "uri": "scene.bin"
    }
  ],
  "images": [
    {
      "uri": "textures/Table_baseColor.png"
    },
    {
      "uri": "textures/Table_metallicRoughness.png"
    },
    {
      "uri": "textures/Table_emissive.png"
    },
    {
      "uri": "textures/Table_normal.png"
    },
    {
      "uri": "textures/Hologram_baseColor.png"
    },
    {
      "uri": "textures/Hologram_emissive.png"
    }
  ],
  "materials": [
    {
      "alphaMode": "BLEND",
      "doubleSided": true,
      "emissiveFactor": [
        1.0,
        1.0,
        1.0
      ],
      "emissiveTexture": {
        "index": 2
      },
      "name": "Table",
      "normalTexture": {
        "index": 3
      },
      "pbrMetallicRoughness": {
        "baseColorTexture": {
          "index": 0
        },
        "metallicRoughnessTexture": {
          "index": 1
        }
      }
    },
    {
      "alphaMode": "BLEND",
      "doubleSided": true,
      "emissiveFactor": [
        1.0,
        1.0,
        1.0
      ],
      "emissiveTexture": {
        "index": 5
      },
      "name": "Hologram",
      "pbrMetallicRoughness": {
        "baseColorFactor": [
          1.0,
          1.0,
          1.0,
          0.5
        ],
        "baseColorTexture": {
          "index": 4
        },
        "metallicFactor": 0.0
      }
    }
  ],
  "meshes": [
    {
      "name": "Table_Table_0",
      "primitives": [
        {
          "attributes": {
            "NORMAL": 1,
            "POSITION": 0,
            "TANGENT": 2,
            "TEXCOORD_0": 3
          },
          "indices": 4,
          "material": 0,
          "mode": 4
        }
      ]
    },
    {
      "name": "Hologram_Hologram_0",
      "primitives": [
        {
          "attributes": {
            "NORMAL": 6,
            "POSITION": 5,
            "TEXCOORD_0": 7,
            "TEXCOORD_1": 8,
            "TEXCOORD_2": 9
          },
          "indices": 10,
          "material": 1,
          "mode": 4
        }
      ]
    }
  ],
  "nodes": [
    {
      "children": [
        1
      ],
      "matrix": [
        0.012500000186264515,
        0.0,
        0.0,
        0.0,
        0.0,
        2.775557602921922e-18,
        -0.012500000186264515,
        0.0,
        0.0,
        0.012500000186264515,
        2.775557602921922e-18,
        0.0,
        0.0,
        0.0,
        0.0,
        1.0
      ],
      "name": "Sketchfab_model"
    },
    {
      "children": [
        2
      ],
      "matrix": [
        1.0,
        0.0,
        0.0,
        0.0,
        0.0,
        0.0,
        1.0,
        0.0,
        0.0,
        -1.0,
        0.0,
        0.0,
        0.0,
        0.0,
        0.0,
        1.0
      ],
      "name": "Holo_Table.fbx"
    },
    {
      "children": [
        3
      ],
      "name": "Object_2"
    },
    {
      "children": [
        4,
        6
      ],
      "name": "RootNode"
    },
    {
      "children": [
        5
      ],
      "name": "Table",
      "rotation": [
        -0.7071068286895752,
        0.0,
        0.0,
        0.7071067094802856
      ],
      "scale": [
        30.479999542236328,
        30.479999542236328,
        30.479999542236328
      ],
      "translation": [
        -1.8249269260195433e-06,
        55.56096267700195,
        2.1540565739996964e-06
      ]
    },
    {
      "mesh": 0,
      "name": "Table_Table_0"
    },
    {
      "children": [
        7
      ],
      "name": "Hologram",
      "rotation": [
        -0.691137433052063,
        0.14942920207977295,
        -0.13855485618114471,
        0.6933992505073547
      ],
      "scale": [
        52.303680419921875,
        52.3036994934082,
        52.30368423461914
      ],
      "translation": [
        3.229295941764576e-07,
        149.3198699951172,
        -3.811706221767963e-07
      ]
    },
    {
      "mesh": 1,
      "name": "Hologram_Hologram_0"
    }
  ],
  "samplers": [
    {
      "magFilter": 9729,
      "minFilter": 9987,
      "wrapS": 10497,
      "wrapT": 10497
    }
  ],
  "scene": 0,
  "scenes": [
    {
      "name": "Sketchfab_Scene",
      "nodes": [
        0
      ]
    }
  ],
  "textures": [
    {
      "sampler": 0,
      "source": 0
    },
    {
      "sampler": 0,
      "source": 1
    },
    {
      "sampler": 0,
      "source": 2
    },
    {
      "sampler": 0,
      "source": 3
    },
    {
      "sampler": 0,
      "source": 4
    },
    {
      "sampler": 0,
      "source": 5
    }
  ]
}
