{
  "accessors": [
    {
      "bufferView": 2,
      "componentType": 5126,
      "count": 1616,
      "max": [
        76.08811950683594,
        76.09732055664063,
        76.08811950683594
      ],
      "min": [
        -76.08811950683594,
        -76.09732055664063,
        -76.08811950683594
      ],
      "type": "VEC3"
    },
    {
      "bufferView": 2,
      "byteOffset": 19392,
      "componentType": 5126,
      "count": 1616,
      "max": [
        1.0,
        1.0,
        1.0
      ],
      "min": [
        -1.0,
        -1.0,
        -1.0
      ],
      "type": "VEC3"
    },
    {
      "bufferView": 1,
      "componentType": 5126,
      "count": 1616,
      "max": [
        0.9998213648796082,
        0.5296474695205688
      ],
      "min": [
        0.00024148602096829563,
        5.310773849487305e-05
      ],
      "type": "VEC2"
    },
    {
      "bufferView": 1,
      "byteOffset": 12928,
      "componentType": 5126,
      "count": 1616,
      "max": [
        0.9998213648796082,
        0.5296474695205688
      ],
      "min": [
        0.00024148602096829563,
        5.310773849487305e-05
      ],
      "type": "VEC2"
    },
    {
      "bufferView": 1,
      "byteOffset": 25856,
      "componentType": 5126,
      "count": 1616,
      "max": [
        0.9998213648796082,
        0.5296474695205688
      ],
      "min": [
        0.00024148602096829563,
        5.310773849487305e-05
      ],
      "type": "VEC2"
    },
    {
      "bufferView": 0,
      "componentType": 5125,
      "count": 9216,
      "type": "SCALAR"
    },
    {
      "bufferView": 2,
      "byteOffset": 38784,
      "componentType": 5126,
      "count": 2292,
      "max": [
        75.0,
        82.9749984741211,
        75.0
      ],
      "min": [
        -75.0,
        7.894000053405762,
        -75.0
      ],
      "type": "VEC3"
    },
    {
      "bufferView": 2,
      "byteOffset": 66288,
      "componentType": 5126,
      "count": 2292,
      "max": [
        1.0,
        1.0,
        1.0
      ],
      "min": [
        -1.0,
        -1.0,
        -1.0
      ],
      "type": "VEC3"
    },
    {
      "bufferView": 1,
      "byteOffset": 38784,
      "componentType": 5126,
      "count": 2292,
      "max": [
        0.9999198317527771,
        0.8104768395423889
      ],
      "min": [
        3.501772880554199e-05,
        0.00024330615997314453
      ],
      "type": "VEC2"
    },
    {
      "bufferView": 1,
      "byteOffset": 57120,
      "componentType": 5126,
      "count": 2292,
      "max": [
        0.9999198317527771,
        0.8104768395423889
      ],
      "min": [
        3.501772880554199e-05,
        0.00024330615997314453
      ],
      "type": "VEC2"
    },
    {
      "bufferView": 1,
      "byteOffset": 75456,
      "componentType": 5126,
      "count": 2292,
      "max": [
        0.9999198317527771,
        0.8104768395423889
      ],
      "min": [
        3.501772880554199e-05,
        0.00024330615997314453
      ],
      "type": "VEC2"
    },
    {
      "bufferView": 0,
      "byteOffset": 36864,
      "componentType": 5125,
      "count": 12438,
      "type": "SCALAR"
    },
    {
      "bufferView": 2,
      "byteOffset": 93792,
      "componentType": 5126,
      "count": 2335,
      "max": [
        47.5,
        81.13099670410156,
        47.5
      ],
      "min": [
        -47.5,
        31.131000518798828,
        -47.5
      ],
      "type": "VEC3"
    },
    {
      "bufferView": 2,
      "byteOffset": 121812,
      "componentType": 5126,
      "count": 2335,
      "max": [
        1.0,
        1.0,
        1.0
      ],
      "min": [
        -1.0,
        -1.0,
        -1.0
      ],
      "type": "VEC3"
    },
    {
      "bufferView": 1,
      "byteOffset": 93792,
      "componentType": 5126,
      "count": 2335,
      "max": [
        0.9999467134475708,
        0.9627575874328613
      ],
      "min": [
        2.446770668029785e-05,
        0.00021535158157348633
      ],
      "type": "VEC2"
    },
    {
      "bufferView": 1,
      "byteOffset": 112472,
      "componentType": 5126,
      "count": 2335,
      "max": [
        0.9999467134475708,
        0.9627575874328613
      ],
      "min": [
        2.446770668029785e-05,
        0.00021535158157348633
      ],
      "type": "VEC2"
    },
    {
      "bufferView": 1,
      "byteOffset": 131152,
      "componentType": 5126,
      "count": 2335,
      "max": [
        0.9999467134475708,
        0.9627575874328613
      ],
      "min": [
        2.446770668029785e-05,
        0.00021535158157348633
      ],
      "type": "VEC2"
    },
    {
      "bufferView": 0,
      "byteOffset": 86616,
      "componentType": 5125,
      "count": 12438,
      "type": "SCALAR"
    },
    {
      "bufferView": 2,
      "byteOffset": 149832,
      "componentType": 5126,
      "count": 2303,
      "max": [
        71.5,
        77.0,
        71.5
      ],
      "min": [
        -71.5,
        5.0,
        -71.5
      ],
      "type": "VEC3"
    },
    {
      "bufferView": 2,
      "byteOffset": 177468,
      "componentType": 5126,
      "count": 2303,
      "max": [
        1.0,
        1.0,
        1.0
      ],
      "min": [
        -1.0,
        -1.0,
        -1.0
      ],
      "type": "VEC3"
    },
    {
      "bufferView": 1,
      "byteOffset": 149832,
      "componentType": 5126,
      "count": 2303,
      "max": [
        0.9998672008514404,
        0.8555677533149719
      ],
      "min": [
        0.00023183226585388184,
        0.00016391277313232422
      ],
      "type": "VEC2"
    },
    {
      "bufferView": 1,
      "byteOffset": 168256,
      "componentType": 5126,
      "count": 2303,
      "max": [
        0.9998672008514404,
        0.8555677533149719
      ],
      "min": [
        0.00023183226585388184,
        0.00016391277313232422
      ],
      "type": "VEC2"
    },
    {
      "bufferView": 1,
      "byteOffset": 186680,
      "componentType": 5126,
      "count": 2303,
      "max": [
        0.9998672008514404,
        0.8555677533149719
      ],
      "min": [
        0.00023183226585388184,
        0.00016391277313232422
      ],
      "type": "VEC2"
    },
    {
      "bufferView": 0,
      "byteOffset": 136368,
      "componentType": 5125,
      "count": 12438,
      "type": "SCALAR"
    }
  ],
  "asset": {
    "extras": {
      "author": "ginanjarputra49 (https://sketchfab.com/ginanjarputra49)",
      "license": "CC-BY-4.0 (http://creativecommons.org/licenses/by/4.0/)",
      "source": "https://sketchfab.com/3d-models/lapisan-matahari-1184f8e3ce384bb3975df7015aa903cb",
      "title": "LAPISAN MATAHARI"
    },
    "generator": "Sketchfab-16.7.0",
    "version": "2.0"
  },
  "bufferViews": [
    {
      "buffer": 0,
      "byteLength": 186120,
      "name": "floatBufferViews",
      "target": 34963
    },
    {
      "buffer": 0,
      "byteLength": 205104,
      "byteOffset": 186120,
      "byteStride": 8,
      "name": "floatBufferViews",
      "target": 34962
    },
    {
      "buffer": 0,
      "byteLength": 205104,
      "byteOffset": 391224,
      "byteStride": 12,
      "name": "floatBufferViews",
      "target": 34962
    }
  ],
  "buffers": [
    {
      "byteLength": 596328,
      "uri": "scene.bin"
    }
  ],
  "extensionsRequired": [
    "KHR_materials_pbrSpecularGlossiness"
  ],
  "extensionsUsed": [
    "KHR_materials_pbrSpecularGlossiness"
  ],
  "images": [
    {
      "uri": "textures/material_diffuse.png"
    },
    {
      "uri": "textures/material_specularGlossiness.png"
    },
    {
      "uri": "textures/material_1_diffuse.png"
    },
    {
      "uri": "textures/material_1_specularGlossiness.png"
    },
    {
      "uri": "textures/material_2_diffuse.png"
    },
    {
      "uri": "textures/material_2_specularGlossiness.png"
    },
    {
      "uri": "textures/material_3_diffuse.png"
    },
    {
      "uri": "textures/material_3_specularGlossiness.png"
    }
  ],
  "materials": [
    {
      "doubleSided": true,
      "extensions": {
        "KHR_materials_pbrSpecularGlossiness": {
          "diffuseFactor": [
            1.0,
            1.0,
            1.0,
            1.0
          ],
          "diffuseTexture": {
            "index": 0
          },
          "glossinessFactor": 1.0,
          "specularFactor": [
            1.0,
            1.0,
            1.0
          ],
          "specularGlossinessTexture": {
            "index": 1
          }
        }
      },
      "name": "material"
    },
    {
      "doubleSided": true,
      "extensions": {
        "KHR_materials_pbrSpecularGlossiness": {
          "diffuseFactor": [
            1.0,
            1.0,
            1.0,
            1.0
          ],
          "diffuseTexture": {
            "index": 2
          },
          "glossinessFactor": 1.0,
          "specularFactor": [
            1.0,
            1.0,
            1.0
          ],
          "specularGlossinessTexture": {
            "index": 3
          }
        }
      },
      "name": "material_1"
    },
    {
      "doubleSided": true,
      "extensions": {
        "KHR_materials_pbrSpecularGlossiness": {
          "diffuseFactor": [
            1.0,
            1.0,
            1.0,
            1.0
          ],
          "diffuseTexture": {
            "index": 4
          },
          "glossinessFactor": 1.0,
          "specularFactor": [
            1.0,
            1.0,
            1.0
          ],
          "specularGlossinessTexture": {
            "index": 5
          }
        }
      },
      "name": "material_2"
    },
    {
      "doubleSided": true,
      "extensions": {
        "KHR_materials_pbrSpecularGlossiness": {
          "diffuseFactor": [
            1.0,
            1.0,
            1.0,
            1.0
          ],
          "diffuseTexture": {
            "index": 6
          },
          "glossinessFactor": 1.0,
          "specularFactor": [
            1.0,
            1.0,
            1.0
          ],
          "specularGlossinessTexture": {
            "index": 7
          }
        }
      },
      "name": "material_3"
    }
  ],
  "meshes": [
    {
      "name": "Object_0",
      "primitives": [
        {
          "attributes": {
            "NORMAL": 1,
            "POSITION": 0,
            "TEXCOORD_0": 2,
            "TEXCOORD_1": 3,
            "TEXCOORD_2": 4
          },
          "indices": 5,
          "material": 0,
          "mode": 4
        }
      ]
    },
    {
      "name": "Object_1",
      "primitives": [
        {
          "attributes": {
            "NORMAL": 7,
            "POSITION": 6,
            "TEXCOORD_0": 8,
            "TEXCOORD_1": 9,
            "TEXCOORD_2": 10
          },
          "indices": 11,
          "material": 1,
          "mode": 4
        }
      ]
    },
    {
      "name": "Object_2",
      "primitives": [
        {
          "attributes": {
            "NORMAL": 13,
            "POSITION": 12,
            "TEXCOORD_0": 14,
            "TEXCOORD_1": 15,
            "TEXCOORD_2": 16
          },
          "indices": 17,
          "material": 2,
          "mode": 4
        }
      ]
    },
    {
      "name": "Object_3",
      "primitives": [
        {
          "attributes": {
            "NORMAL": 19,
            "POSITION": 18,
            "TEXCOORD_0": 20,
            "TEXCOORD_1": 21,
            "TEXCOORD_2": 22
          },
          "indices": 23,
          "material": 3,
          "mode": 4
        }
      ]
    }
  ],
  "nodes": [
    {
      "children": [
        1
      ],
      "matrix": [
        1.0,
        0.0,
        0.0,
        0.0,
        0.0,
        2.220446049250313e-16,
        -1.0,
        0.0,
        0.0,
        1.0,
        2.220446049250313e-16,
        0.0,
        0.0,
        0.0,
        0.0,
        1.0
      ],
      "name": "Sketchfab_model"
    },
    {
      "children": [
        2
      ],
      "name": "root"
    },
    {
      "children": [
        3
      ],
      "matrix": [
        1.0,
        0.0,
        0.0,
        0.0,
        0.0,
        2.220446049250313e-16,
        1.0,
        0.0,
        0.0,
        -1.0,
        2.220446049250313e-16,
        0.0,
        0.0,
        0.0,
        0.0,
        1.0
      ],
      "name": "GLTF_SceneRootNode"
    },
    {
      "children": [
        4,
        6,
        8,
        10
      ],
      "name": "root_2"
    },
    {
      "children": [
        5
      ],
      "matrix": [
        0.0010000000474974513,
        0.0,
        0.0,
        0.0,
        0.0,
        0.0010000000474974513,
        0.0,
        0.0,
        0.0,
        0.0,
        0.0010000000474974513,
        0.0,
        0.0049776602536439896,
        0.00893058069050312,
        0.2517150938510895,
        1.0
      ],
      "name": "_0"
    },
    {
      "mesh": 0,
      "name": "Object_5"
    },
    {
      "children": [
        7
      ],
      "matrix": [
        8.136654476630546e-10,
        -4.0717293525004605e-10,
        -0.003413330996408937,
        0.0,
        -0.0034133572411869794,
        2.2831382638507648e-06,
        -8.13944056978765e-10,
        0.0,
        2.2831382639479677e-06,
        0.0034133572411870518,
        -4.0663181447364346e-10,
        0.0,
        0.5905507206916809,
        0.011591149494051933,
        0.2558608651161194,
        1.0
      ],
      "name": "node_id60_3"
    },
    {
      "mesh": 1,
      "name": "Object_7"
    },
    {
      "children": [
        9
      ],
      "matrix": [
        2.1811326763051255e-06,
        0.003264209691017089,
        -1.977226601877262e-10,
        0.0,
        -0.0032642141147983346,
        2.1811356322511917e-06,
        -1.290438791790584e-10,
        0.0,
        -1.2891019710870267e-10,
        1.9780675436052288e-10,
        0.0032641759607940826,
        0.0,
        0.3121615946292877,
        0.01860598661005497,
        0.26524046063423157,
        1.0
      ],
      "name": "node_id107_1"
    },
    {
      "mesh": 2,
      "name": "Object_9"
    },
    {
      "children": [
        11
      ],
      "matrix": [
        6.1381386463361e-10,
        -6.13813754875151e-10,
        -0.003432695521041641,
        0.0,
        -0.003432695521041641,
        -6.1381386463361e-10,
        -6.13813754875151e-10,
        0.0,
        -6.13813754875151e-10,
        0.003432695521041641,
        -6.1381386463361e-10,
        0.0,
        0.43355828523635864,
        0.007992197759449482,
        0.2665356397628784,
        1.0
      ],
      "name": "node_id117_4"
    },
    {
      "mesh": 3,
      "name": "Object_11"
    }
  ],
  "samplers": [
    {
      "magFilter": 9729,
      "minFilter": 9987,
      "wrapS": 10497,
      "wrapT": 10497
    }
  ],
  "scene": 0,
  "scenes": [
    {
      "name": "Sketchfab_Scene",
      "nodes": [
        0
      ]
    }
  ],
  "textures": [
    {
      "sampler": 0,
      "source": 0
    },
    {
      "sampler": 0,
      "source": 1
    },
    {
      "sampler": 0,
      "source": 2
    },
    {
      "sampler": 0,
      "source": 3
    },
    {
      "sampler": 0,
      "source": 4
    },
    {
      "sampler": 0,
      "source": 5
    },
    {
      "sampler": 0,
      "source": 6
    },
    {
      "sampler": 0,
      "source": 7
    }
  ]
}
