{
  "accessors": [
    {
      "bufferView": 2,
      "componentType": 5126,
      "count": 831,
      "max": [
        0.057814955711364746,
        3.6346793174743652,
        0.24437904357910156
      ],
      "min": [
        -3.872666358947754,
        0.004067182540893555,
        -0.1454911231994629
      ],
      "type": "VEC3"
    },
    {
      "bufferView": 2,
      "byteOffset": 9972,
      "componentType": 5126,
      "count": 831,
      "max": [
        1.0,
        1.0,
        1.0
      ],
      "min": [
        -1.0,
        -1.0,
        -1.0
      ],
      "type": "VEC3"
    },
    {
      "bufferView": 1,
      "componentType": 5126,
      "count": 831,
      "max": [
        0.875,
        1.0
      ],
      "min": [
        0.125,
        -7.450580596923828e-08
      ],
      "type": "VEC2"
    },
    {
      "bufferView": 0,
      "componentType": 5125,
      "count": 2349,
      "type": "SCALAR"
    },
    {
      "bufferView": 2,
      "byteOffset": 19944,
      "componentType": 5126,
      "count": 84,
      "max": [
        -0.0015265941619873047,
        3.619922637939453,
        0.22962236404418945
      ],
      "min": [
        -3.8277316093444824,
        3.408522605895996,
        0.018222332000732422
      ],
      "type": "VEC3"
    },
    {
      "bufferView": 2,
      "byteOffset": 20952,
      "componentType": 5126,
      "count": 84,
      "max": [
        1.0,
        1.0,
        1.0
      ],
      "min": [
        -1.0,
        -1.0,
        -1.0
      ],
      "type": "VEC3"
    },
    {
      "bufferView": 1,
      "byteOffset": 6648,
      "componentType": 5126,
      "count": 84,
      "max": [
        0.65625,
        1.0
      ],
      "min": [
        0.3437499701976776,
        -7.450580596923828e-08
      ],
      "type": "VEC2"
    },
    {
      "bufferView": 0,
      "byteOffset": 9396,
      "componentType": 5125,
      "count": 240,
      "type": "SCALAR"
    },
    {
      "bufferView": 2,
      "byteOffset": 21960,
      "componentType": 5126,
      "count": 488,
      "max": [
        0.003835320472717285,
        3.6134562492370605,
        0.22315597534179688
      ],
      "min": [
        -3.8248138427734375,
        0.0,
        -0.1454911231994629
      ],
      "type": "VEC3"
    },
    {
      "bufferView": 2,
      "byteOffset": 27816,
      "componentType": 5126,
      "count": 488,
      "max": [
        1.0,
        1.0,
        1.0
      ],
      "min": [
        -1.0,
        -1.0,
        -1.0
      ],
      "type": "VEC3"
    },
    {
      "bufferView": 1,
      "byteOffset": 7320,
      "componentType": 5126,
      "count": 488,
      "max": [
        0.875,
        1.0
      ],
      "min": [
        0.125,
        -7.450580596923828e-08
      ],
      "type": "VEC2"
    },
    {
      "bufferView": 0,
      "byteOffset": 10356,
      "componentType": 5125,
      "count": 1224,
      "type": "SCALAR"
    },
    {
      "bufferView": 2,
      "byteOffset": 33672,
      "componentType": 5126,
      "count": 72,
      "max": [
        -0.010415315628051758,
        3.2058558464050293,
        0.007110595703125
      ],
      "min": [
        -3.8138952255249023,
        0.04934334754943848,
        -0.009044170379638672
      ],
      "type": "VEC3"
    },
    {
      "bufferView": 2,
      "byteOffset": 34536,
      "componentType": 5126,
      "count": 72,
      "max": [
        0.0,
        0.0,
        1.0
      ],
      "min": [
        0.0,
        0.0,
        -1.0
      ],
      "type": "VEC3"
    },
    {
      "bufferView": 1,
      "byteOffset": 11224,
      "componentType": 5126,
      "count": 72,
      "max": [
        0.8800632953643799,
        0.9473683834075928
      ],
      "min": [
        0.0,
        0.5000001192092896
      ],
      "type": "VEC2"
    },
    {
      "bufferView": 0,
      "byteOffset": 15252,
      "componentType": 5125,
      "count": 108,
      "type": "SCALAR"
    },
    {
      "bufferView": 2,
      "byteOffset": 35400,
      "componentType": 5126,
      "count": 332,
      "max": [
        -0.010415315628051758,
        3.5772104263305664,
        0.007110595703125
      ],
      "min": [
        -3.8138952255249023,
        0.04934334754943848,
        -0.009044170379638672
      ],
      "type": "VEC3"
    },
    {
      "bufferView": 2,
      "byteOffset": 39384,
      "componentType": 5126,
      "count": 332,
      "max": [
        1.0,
        1.0,
        1.0
      ],
      "min": [
        -1.0,
        -1.0,
        -1.0
      ],
      "type": "VEC3"
    },
    {
      "bufferView": 1,
      "byteOffset": 11800,
      "componentType": 5126,
      "count": 332,
      "max": [
        0.9714981913566589,
        1.0
      ],
      "min": [
        0.0,
        0.0
      ],
      "type": "VEC2"
    },
    {
      "bufferView": 0,
      "byteOffset": 15684,
      "componentType": 5125,
      "count": 828,
      "type": "SCALAR"
    },
    {
      "bufferView": 2,
      "byteOffset": 43368,
      "componentType": 5126,
      "count": 65532,
      "max": [
        0.03736293315887451,
        3.541214942932129,
        -0.0009584426879882813
      ],
      "min": [
        0.013247966766357422,
        0.3930175304412842,
        -0.11967182159423828
      ],
      "type": "VEC3"
    },
    {
      "bufferView": 2,
      "byteOffset": 829752,
      "componentType": 5126,
      "count": 65532,
      "max": [
        1.0,
        1.0,
        0.9999999403953552
      ],
      "min": [
        -1.0,
        -1.0,
        -1.0
      ],
      "type": "VEC3"
    },
    {
      "bufferView": 1,
      "byteOffset": 14456,
      "componentType": 5126,
      "count": 65532,
      "max": [
        1.0000001192092896,
        1.0
      ],
      "min": [
        0.0,
        0.0
      ],
      "type": "VEC2"
    },
    {
      "bufferView": 0,
      "byteOffset": 18996,
      "componentType": 5125,
      "count": 342564,
      "type": "SCALAR"
    },
    {
      "bufferView": 2,
      "byteOffset": 1616136,
      "componentType": 5126,
      "count": 65532,
      "max": [
        0.03736293315887451,
        3.5310444831848145,
        -0.0008726119995117188
      ],
      "min": [
        0.013247966766357422,
        0.24429035186767578,
        -0.11967611312866211
      ],
      "type": "VEC3"
    },
    {
      "bufferView": 2,
      "byteOffset": 2402520,
      "componentType": 5126,
      "count": 65532,
      "max": [
        1.0,
        1.0,
        1.0
      ],
      "min": [
        -1.0,
        -1.0,
        -1.0
      ],
      "type": "VEC3"
    },
    {
      "bufferView": 1,
      "byteOffset": 538712,
      "componentType": 5126,
      "count": 65532,
      "max": [
        1.0000001192092896,
        1.0
      ],
      "min": [
        0.0,
        0.0
      ],
      "type": "VEC2"
    },
    {
      "bufferView": 0,
      "byteOffset": 1389252,
      "componentType": 5125,
      "count": 329487,
      "type": "SCALAR"
    },
    {
      "bufferView": 2,
      "byteOffset": 3188904,
      "componentType": 5126,
      "count": 4565,
      "max": [
        0.03736293315887451,
        2.648975372314453,
        -0.0008029937744140625
      ],
      "min": [
        0.013247966766357422,
        1.8159923553466797,
        -0.025026321411132813
      ],
      "type": "VEC3"
    },
    {
      "bufferView": 2,
      "byteOffset": 3243684,
      "componentType": 5126,
      "count": 4565,
      "max": [
        1.0,
        1.0,
        1.0
      ],
      "min": [
        -1.0,
        -1.0,
        -1.0
      ],
      "type": "VEC3"
    },
    {
      "bufferView": 1,
      "byteOffset": 1062968,
      "componentType": 5126,
      "count": 4565,
      "max": [
        1.0000001192092896,
        1.0
      ],
      "min": [
        0.0,
        0.0
      ],
      "type": "VEC2"
    },
    {
      "bufferView": 0,
      "byteOffset": 2707200,
      "componentType": 5125,
      "count": 21069,
      "type": "SCALAR"
    },
    {
      "bufferView": 2,
      "byteOffset": 3298464,
      "componentType": 5126,
      "count": 24,
      "max": [
        -0.010415434837341309,
        3.5772104263305664,
        0.00310516357421875
      ],
      "min": [
        -3.8138952255249023,
        0.04934334754943848,
        -0.004342079162597656
      ],
      "type": "VEC3"
    },
    {
      "bufferView": 2,
      "byteOffset": 3298752,
      "componentType": 5126,
      "count": 24,
      "max": [
        1.0,
        1.0,
        1.0
      ],
      "min": [
        -1.0,
        -1.0,
        -1.0
      ],
      "type": "VEC3"
    },
    {
      "bufferView": 1,
      "byteOffset": 1099488,
      "componentType": 5126,
      "count": 24,
      "max": [
        0.9842461347579956,
        1.0
      ],
      "min": [
        0.0,
        0.0
      ],
      "type": "VEC2"
    },
    {
      "bufferView": 0,
      "byteOffset": 2791476,
      "componentType": 5125,
      "count": 36,
      "type": "SCALAR"
    },
    {
      "bufferView": 2,
      "byteOffset": 3299040,
      "componentType": 5126,
      "count": 140,
      "max": [
        0.04288804531097412,
        0.5693314075469971,
        -0.013599395751953125
      ],
      "min": [
        0.009113430976867676,
        0.227492094039917,
        -0.10803413391113281
      ],
      "type": "VEC3"
    },
    {
      "bufferView": 2,
      "byteOffset": 3300720,
      "componentType": 5126,
      "count": 140,
      "max": [
        0.9994440674781799,
        0.9994641542434692,
        0.9999755024909973
      ],
      "min": [
        -0.9994440674781799,
        -0.9994641542434692,
        -0.9999755024909973
      ],
      "type": "VEC3"
    },
    {
      "bufferView": 1,
      "byteOffset": 1099680,
      "componentType": 5126,
      "count": 140,
      "max": [
        0.875,
        0.9458904266357422
      ],
      "min": [
        0.125,
        0.0
      ],
      "type": "VEC2"
    },
    {
      "bufferView": 0,
      "byteOffset": 2791620,
      "componentType": 5125,
      "count": 468,
      "type": "SCALAR"
    },
    {
      "bufferView": 2,
      "byteOffset": 3302400,
      "componentType": 5126,
      "count": 277,
      "max": [
        0.051396965980529785,
        3.4353017807006836,
        0.021529674530029297
      ],
      "min": [
        -0.006230831146240234,
        3.3553662300109863,
        -0.13489484786987305
      ],
      "type": "VEC3"
    },
    {
      "bufferView": 2,
      "byteOffset": 3305724,
      "componentType": 5126,
      "count": 277,
      "max": [
        0.9999883770942688,
        0.9999719262123108,
        0.993815541267395
      ],
      "min": [
        -0.9999884366989136,
        -0.9999465942382813,
        -0.9954116940498352
      ],
      "type": "VEC3"
    },
    {
      "bufferView": 1,
      "byteOffset": 1100800,
      "componentType": 5126,
      "count": 277,
      "max": [
        0.875,
        0.9945764541625977
      ],
      "min": [
        0.125,
        0.0
      ],
      "type": "VEC2"
    },
    {
      "bufferView": 0,
      "byteOffset": 2793492,
      "componentType": 5125,
      "count": 1002,
      "type": "SCALAR"
    }
  ],
  "asset": {
    "extras": {
      "author": "tqezzz (https://sketchfab.com/tqezzz)",
      "license": "CC-BY-4.0 (http://creativecommons.org/licenses/by/4.0/)",
      "source": "https://sketchfab.com/3d-models/korean-curtain-blinder-47e1cd6dfc0b4cab90b66069ea6222fd",
      "title": "Korean Curtain Blinder"
    },
    "generator": "Sketchfab-16.59.0",
    "version": "2.0"
  },
  "bufferViews": [
    {
      "buffer": 0,
      "byteLength": 2797500,
      "name": "floatBufferViews",
      "target": 34963
    },
    {
      "buffer": 0,
      "byteLength": 1103016,
      "byteOffset": 2797500,
      "byteStride": 8,
      "name": "floatBufferViews",
      "target": 34962
    },
    {
      "buffer": 0,
      "byteLength": 3309048,
      "byteOffset": 3900516,
      "byteStride": 12,
      "name": "floatBufferViews",
      "target": 34962
    }
  ],
  "buffers": [
    {
      "byteLength": 7209564,
      "uri": "scene.bin"
    }
  ],
  "images": [
    {
      "uri": "textures/curtainBlindBrown_Lambert_baseColor.jpeg"
    },
    {
      "uri": "textures/curtainBrown_Lambert_baseColor.jpeg"
    }
  ],
  "materials": [
    {
      "doubleSided": true,
      "name": "whiteCeramic_fan",
      "pbrMetallicRoughness": {
        "metallicFactor": 0.0,
        "roughnessFactor": 0.6
      }
    },
    {
      "doubleSided": true,
      "name": "cupboardGlass1",
      "pbrMetallicRoughness": {
        "metallicFactor": 0.0,
        "roughnessFactor": 0.6
      }
    },
    {
      "doubleSided": true,
      "name": "brown_Lambert_curtain",
      "pbrMetallicRoughness": {
        "baseColorFactor": [
          0.888,
          0.559775,
          0.32412,
          1.0
        ],
        "metallicFactor": 0.0,
        "roughnessFactor": 0.6
      }
    },
    {
      "doubleSided": true,
      "name": "curtainTransparent_Lambert",
      "pbrMetallicRoughness": {
        "baseColorFactor": [
          0.888,
          0.559775,
          0.32412,
          1.0
        ],
        "metallicFactor": 0.0,
        "roughnessFactor": 0.6
      }
    },
    {
      "doubleSided": true,
      "name": "curtainBlindBrown_Lambert",
      "pbrMetallicRoughness": {
        "baseColorTexture": {
          "index": 0
        },
        "metallicFactor": 0.0,
        "roughnessFactor": 0.6
      }
    },
    {
      "doubleSided": true,
      "name": "whiteCeramicBlade_fan",
      "pbrMetallicRoughness": {
        "metallicFactor": 0.0,
        "roughnessFactor": 0.6
      }
    },
    {
      "doubleSided": true,
      "name": "curtainBrown_Lambert",
      "pbrMetallicRoughness": {
        "baseColorTexture": {
          "index": 1
        },
        "metallicFactor": 0.0,
        "roughnessFactor": 0.6
      }
    },
    {
      "doubleSided": true,
      "name": "greyMatte_Lambert_fan",
      "pbrMetallicRoughness": {
        "baseColorFactor": [
          0.266,
          0.266,
          0.266,
          1.0
        ],
        "metallicFactor": 0.0,
        "roughnessFactor": 0.6
      }
    },
    {
      "doubleSided": true,
      "name": "standardSurface1",
      "pbrMetallicRoughness": {
        "metallicFactor": 0.0,
        "roughnessFactor": 0.6
      }
    }
  ],
  "meshes": [
    {
      "name": "curtain_V1_whiteCeramic_fan_0",
      "primitives": [
        {
          "attributes": {
            "NORMAL": 1,
            "POSITION": 0,
            "TEXCOORD_0": 2
          },
          "indices": 3,
          "material": 0,
          "mode": 4
        }
      ]
    },
    {
      "name": "curtain_V1_cupboardGlass1_0",
      "primitives": [
        {
          "attributes": {
            "NORMAL": 5,
            "POSITION": 4,
            "TEXCOORD_0": 6
          },
          "indices": 7,
          "material": 1,
          "mode": 4
        }
      ]
    },
    {
      "name": "curtain_V1_brown_Lambert_curtain_0",
      "primitives": [
        {
          "attributes": {
            "NORMAL": 9,
            "POSITION": 8,
            "TEXCOORD_0": 10
          },
          "indices": 11,
          "material": 2,
          "mode": 4
        }
      ]
    },
    {
      "name": "curtain_V1_curtainTransparent_Lambert_0",
      "primitives": [
        {
          "attributes": {
            "NORMAL": 13,
            "POSITION": 12,
            "TEXCOORD_0": 14
          },
          "indices": 15,
          "material": 3,
          "mode": 4
        }
      ]
    },
    {
      "name": "curtain_V1_curtainBlindBrown_Lambert_0",
      "primitives": [
        {
          "attributes": {
            "NORMAL": 17,
            "POSITION": 16,
            "TEXCOORD_0": 18
          },
          "indices": 19,
          "material": 4,
          "mode": 4
        }
      ]
    },
    {
      "name": "curtain_V1_whiteCeramicBlade_fan_0",
      "primitives": [
        {
          "attributes": {
            "NORMAL": 21,
            "POSITION": 20,
            "TEXCOORD_0": 22
          },
          "indices": 23,
          "material": 5,
          "mode": 4
        }
      ]
    },
    {
      "name": "curtain_V1_whiteCeramicBlade_fan_0",
      "primitives": [
        {
          "attributes": {
            "NORMAL": 25,
            "POSITION": 24,
            "TEXCOORD_0": 26
          },
          "indices": 27,
          "material": 5,
          "mode": 4
        }
      ]
    },
    {
      "name": "curtain_V1_whiteCeramicBlade_fan_0",
      "primitives": [
        {
          "attributes": {
            "NORMAL": 29,
            "POSITION": 28,
            "TEXCOORD_0": 30
          },
          "indices": 31,
          "material": 5,
          "mode": 4
        }
      ]
    },
    {
      "name": "curtain_V1_curtainBrown_Lambert_0",
      "primitives": [
        {
          "attributes": {
            "NORMAL": 33,
            "POSITION": 32,
            "TEXCOORD_0": 34
          },
          "indices": 35,
          "material": 6,
          "mode": 4
        }
      ]
    },
    {
      "name": "curtain_V1_greyMatte_Lambert_fan_0",
      "primitives": [
        {
          "attributes": {
            "NORMAL": 37,
            "POSITION": 36,
            "TEXCOORD_0": 38
          },
          "indices": 39,
          "material": 7,
          "mode": 4
        }
      ]
    },
    {
      "name": "curtain_V1_standardSurface1_0",
      "primitives": [
        {
          "attributes": {
            "NORMAL": 41,
            "POSITION": 40,
            "TEXCOORD_0": 42
          },
          "indices": 43,
          "material": 8,
          "mode": 4
        }
      ]
    }
  ],
  "nodes": [
    {
      "children": [
        1
      ],
      "matrix": [
        1.0,
        0.0,
        0.0,
        0.0,
        0.0,
        2.220446049250313e-16,
        -1.0,
        0.0,
        0.0,
        1.0,
        2.220446049250313e-16,
        0.0,
        0.0,
        0.0,
        0.0,
        1.0
      ],
      "name": "Sketchfab_model"
    },
    {
      "children": [
        2
      ],
      "matrix": [
        0.009999999776482582,
        0.0,
        0.0,
        0.0,
        0.0,
        0.0,
        0.009999999776482582,
        0.0,
        0.0,
        -0.009999999776482582,
        0.0,
        0.0,
        0.0,
        0.0,
        0.0,
        1.0
      ],
      "name": "64fc506761524e39b506b9d4611544a0.fbx"
    },
    {
      "children": [
        3
      ],
      "name": "RootNode"
    },
    {
      "children": [
        4,
        5,
        6,
        7,
        8,
        9,
        10,
        11,
        12,
        13,
        14
      ],
      "name": "curtain_V1"
    },
    {
      "mesh": 0,
      "name": "curtain_V1_whiteCeramic_fan_0"
    },
    {
      "mesh": 1,
      "name": "curtain_V1_cupboardGlass1_0"
    },
    {
      "mesh": 2,
      "name": "curtain_V1_brown_Lambert_curtain_0"
    },
    {
      "mesh": 3,
      "name": "curtain_V1_curtainTransparent_Lambert_0"
    },
    {
      "mesh": 4,
      "name": "curtain_V1_curtainBlindBrown_Lambert_0"
    },
    {
      "mesh": 5,
      "name": "curtain_V1_whiteCeramicBlade_fan_0"
    },
    {
      "mesh": 6,
      "name": "curtain_V1_whiteCeramicBlade_fan_0"
    },
    {
      "mesh": 7,
      "name": "curtain_V1_whiteCeramicBlade_fan_0"
    },
    {
      "mesh": 8,
      "name": "curtain_V1_curtainBrown_Lambert_0"
    },
    {
      "mesh": 9,
      "name": "curtain_V1_greyMatte_Lambert_fan_0"
    },
    {
      "mesh": 10,
      "name": "curtain_V1_standardSurface1_0"
    }
  ],
  "samplers": [
    {
      "magFilter": 9729,
      "minFilter": 9987,
      "wrapS": 10497,
      "wrapT": 10497
    }
  ],
  "scene": 0,
  "scenes": [
    {
      "name": "Sketchfab_Scene",
      "nodes": [
        0
      ]
    }
  ],
  "textures": [
    {
      "sampler": 0,
      "source": 0
    },
    {
      "sampler": 0,
      "source": 1
    }
  ]
}
